<svg xmlns="http://www.w3.org/2000/svg" viewBox="0 0 28 28">
  <path d="M14 4.75c1.119 0 2.612.45 3.138 1.717.684 1.65-.456 4.206-3.138 7.092-2.681-2.886-3.821-5.442-3.138-7.092C11.388 5.2 12.881 4.75 14 4.75m7.501 6.92c2.17 0 2.749 2.093 2.749 3.33s-.579 3.331-2.75 3.331c-1.163 0-3.132-.599-6.061-3.33 2.929-2.732 4.898-3.331 6.062-3.331m-15.001 0c1.163 0 3.132.599 6.061 3.33-2.93 2.731-4.898 3.33-6.061 3.33-2.171 0-2.75-2.093-2.75-3.33s.579-3.33 2.75-3.33m7.5 4.77c2.681 2.886 3.821 5.442 3.138 7.092C16.612 24.8 15.119 25.25 14 25.25s-2.612-.45-3.138-1.717c-.683-1.651.457-4.206 3.138-7.093m0-12.69c-3.75 0-7.5 3.75 0 11.25-3.17-3.17-5.67-4.33-7.5-4.33-4.999 0-5 8.66 0 8.66 1.83 0 4.33-1.161 7.5-4.33-7.5 7.5-3.75 11.25 0 11.25S21.5 22.5 14 15c3.17 3.17 5.67 4.33 7.5 4.33 4.999 0 5-8.661 0-8.66-1.83 0-4.33 1.161-7.5 4.33 7.5-7.5 3.75-11.25 0-11.25z"/>
</svg>