<svg id="plug" xmlns="http://www.w3.org/2000/svg" enable-background="new 0 0 120 120" viewBox="0 0 120 120">
	<path d="M78 12c17.1 0 31 13.9 31 31v35c0 17.1-13.9 31-31 31H43c-17.1 0-31-13.9-31-31V43c0-17.1 13.9-31 31-31H78M78 3H43C21 3 3 21 3 43v35c0 22 18 40 40 40h35c22 0 40-18 40-40V43C118 21 100 3 78 3L78 3z"/><rect x="33" y="35" width="14" height="49"/><path d="M44 38v43h-9V38H44M50 33H30v55h20V33L50 33z"/><rect x="73" y="35" width="14" height="49"/><path d="M84 38v43h-9V38H84M90 33H70v55h20V33L90 33z"/>

</svg>