<svg id="search" xmlns="http://www.w3.org/2000/svg"  viewBox="0 0 120 120" style="enable-background:new 0 0 120 120;" x="0px" y="0px" xml:space="preserve">

<style type="text/css">  
	.st0{fill:none;stroke:#000000;stroke-width:10;stroke-miterlimit:10;}
	.st1{fill:none;stroke:#000000;stroke-width:6;stroke-miterlimit:10;}
</style>

<path d="M45 14.5c17.4 0 31.5 14.1 31.5 31.5S62.4 77.5 45 77.5 13.5 63.4 13.5 46 27.6 14.5 45 14.5M45 6C22.9 6 5 23.9 5 46c0 22.1 17.9 40 40 40 22.1 0 40-17.9 40-40C85 23.9 67.1 6 45 6L45 6z"/><line class="st0" x1="72" y1="73" x2="107.4" y2="107.4"/><path class="st1" d="M36.6 27.9c5.2-3.4 12.2-2.9 16.5 1.3"/>
</svg>