<svg xmlns="http://www.w3.org/2000/svg">
    <symbol id="swigglysun" viewBox="0 0 285.93 250">
        <title>swigglysun symbol</title>
        <style type="text/css">  
            .st0{fill:none;stroke:#000000;stroke-width:5.6373;stroke-miterlimit:10;}
        </style>
        <path class="st0" d="M62.6 2.5c0 4.1-5.2 4.1-5.2 8.3 0 4.1 5.2 4.1 5.2 8.3s-5.2 4.1-5.2 8.3"/><path class="st0" d="M21.2 17.5c2.9 2.9-0.7 6.6 2.2 9.5 2.9 2.9 6.6-0.7 9.5 2.2s-0.7 6.6 2.2 9.5"/><path class="st0" d="M2.5 57.4c4.1 0 4.1 5.2 8.3 5.2 4.1 0 4.1-5.2 8.3-5.2s4.1 5.2 8.3 5.2"/><path class="st0" d="M17.5 98.8c2.9-2.9 6.6 0.7 9.5-2.2 2.9-2.9-0.7-6.6 2.2-9.5 2.9-2.9 6.6 0.7 9.5-2.2"/><path class="st0" d="M57.4 117.5c0-4.1 5.2-4.1 5.2-8.3 0-4.1-5.2-4.1-5.2-8.3s5.2-4.1 5.2-8.3"/><path class="st0" d="M98.8 102.5c-2.9-2.9 0.7-6.6-2.2-9.5 -2.9-2.9-6.6 0.7-9.5-2.2 -2.9-2.9 0.7-6.6-2.2-9.5"/><path class="st0" d="M117.5 62.6c-4.1 0-4.1-5.2-8.3-5.2 -4.1 0-4.1 5.2-8.3 5.2s-4.1-5.2-8.3-5.2"/><path class="st0" d="M102.5 21.2c-2.9 2.9-6.6-0.7-9.5 2.2 -2.9 2.9 0.7 6.6-2.2 9.5 -2.9 2.9-6.6-0.7-9.5 2.2"/><path class="st0" d="M76.9 43.1c-2.4-2-6-4.6-8.6-5.6 -2.6-1-5.5-1.4-8.9-1.4 -0.9 0-1.9 0-2.8 0.1 -2.5 0.2-5 0.8-7.4 1.7 -3 1.1-6.9 3.9-8.8 5.9 -1.9 1.9-3.5 4.7-4.7 7.7 -1.5 3.6-2.2 7.7-1.9 11.3 0.5 4.6 2.4 8.9 5.4 12.1 3.5 3.7 11.7 8.1 17.3 7.6 4.2-0.4 11-1.6 14.3-4.9s5.5-9.7 5.1-13.8c-0.2-1.8-0.2-6.2-1.8-9.2 -1.3-2.4-4-4.7-5.5-5.9 -1.6-1.2-3.7-2-5.8-2.4 -2.2-0.4-4.4-0.5-6.2-0.3 -1.8 0.2-4.5 0.4-6.9 2.2 -1.7 1.3-3.3 2.8-4.2 4.1 -0.9 1.3-2.5 4.1-2.7 5.8 -0.2 1.7-0.1 3.3 0 4.5 0.2 2.2 1.8 5.7 3.8 7.5 0.6 0.5 1.3 1 2.2 1.4 2.5 1.3 5.9 2 7.7 1.8 1.3-0.1 3.9 0.3 5.2-0.8 0.6-0.5 3.5-3.3 4-3.9 0.8-1 0.7-2 1.5-3.1 0.8-1.1 0.2-2.1 0.1-3 -0.5-4.9-1.7-5.8-4.3-7.5 -1.8-1.3-6.2-1-7.6-0.8 -1.3 0.1-3.5 2.4-4.3 3.9 -0.8 1.5 0 3.2 0.1 4.5 0.2 2 3.2 3.5 5.3 3.3 1.7-0.2 3-1.7 2.8-3.3 -0.1-1.4-1.4-2.4-2.8-2.2 -1.2 0.1-2 1.1-1.9 2.3 0.1 0.9 0.9 1.6 1.9 1.5 0.8-0.1 1.4-0.8 1.3-1.5 -0.1-0.6-0.6-1.1-1.3-1"/><path class="st0" d="M75.8 42c3.3 2.3 6.7 7.4 8.1 11.2 1.4 3.8 2 7.4 2 9.1 0 2.4-0.5 5.3-1.5 8.2 -1.2 3.6-1.9 4.9-4.2 7.4"/>
    </symbol>

    <symbol id="sunny" viewBox="0 0 285.93 250">
        <title>sunny symbol</title>
        <style type="text/css">  
            .st0{stroke:#000000;stroke-width:5.6373;stroke-miterlimit:10;}
        </style>
        <path class="st0" d="M62.6 2.5c0 4.1-5.2 4.1-5.2 8.3 0 4.1 5.2 4.1 5.2 8.3s-5.2 4.1-5.2 8.3"/><path class="st0" d="M21.2 17.5c2.9 2.9-0.7 6.6 2.2 9.5 2.9 2.9 6.6-0.7 9.5 2.2s-0.7 6.6 2.2 9.5"/><path class="st0" d="M2.5 57.4c4.1 0 4.1 5.2 8.3 5.2 4.1 0 4.1-5.2 8.3-5.2s4.1 5.2 8.3 5.2"/><path class="st0" d="M17.5 98.8c2.9-2.9 6.6 0.7 9.5-2.2 2.9-2.9-0.7-6.6 2.2-9.5 2.9-2.9 6.6 0.7 9.5-2.2"/><path class="st0" d="M57.4 117.5c0-4.1 5.2-4.1 5.2-8.3 0-4.1-5.2-4.1-5.2-8.3s5.2-4.1 5.2-8.3"/><path class="st0" d="M98.8 102.5c-2.9-2.9 0.7-6.6-2.2-9.5 -2.9-2.9-6.6 0.7-9.5-2.2 -2.9-2.9 0.7-6.6-2.2-9.5"/><path class="st0" d="M117.5 62.6c-4.1 0-4.1-5.2-8.3-5.2 -4.1 0-4.1 5.2-8.3 5.2s-4.1-5.2-8.3-5.2"/><path class="st0" d="M102.5 21.2c-2.9 2.9-6.6-0.7-9.5 2.2 -2.9 2.9 0.7 6.6-2.2 9.5 -2.9 2.9-6.6-0.7-9.5 2.2"/><circle class="st0" cx="60" cy="60" r="23"/>
    </symbol>

    <symbol id="plug" viewBox="0 0 285.93 250">
        <title>plug symbol</title>


    </symbol>

    <symbol id="drop" viewBox="0 0 285.93 250">
        <title>drop symbol</title>
        <path d="m14 4.687c-10.825 12.418-5.412 18.626 0 18.626 5.365 0 10.73-6.099 0.282-18.299l-0.282-0.327zm4.761 14.479c-0.872 2.17-3.031 2.943-4.761 2.943s-3.889-0.773-4.761-2.943c-1.195-2.973 0.537-7.559 4.761-12.693 4.224 5.134 5.956 9.72 4.761 12.693z" stroke="#000" stroke-miterlimit="10" stroke-width="1.7403"/>
    </symbol>
    
    <symbol id="clover" viewBox="0 0 285.93 250">
        <title>clover symbol</title>
        <path d="M14 4.75c1.119 0 2.612.45 3.138 1.717.684 1.65-.456 4.206-3.138 7.092-2.681-2.886-3.821-5.442-3.138-7.092C11.388 5.2 12.881 4.75 14 4.75m7.501 6.92c2.17 0 2.749 2.093 2.749 3.33s-.579 3.331-2.75 3.331c-1.163 0-3.132-.599-6.061-3.33 2.929-2.732 4.898-3.331 6.062-3.331m-15.001 0c1.163 0 3.132.599 6.061 3.33-2.93 2.731-4.898 3.33-6.061 3.33-2.171 0-2.75-2.093-2.75-3.33s.579-3.33 2.75-3.33m7.5 4.77c2.681 2.886 3.821 5.442 3.138 7.092C16.612 24.8 15.119 25.25 14 25.25s-2.612-.45-3.138-1.717c-.683-1.651.457-4.206 3.138-7.093m0-12.69c-3.75 0-7.5 3.75 0 11.25-3.17-3.17-5.67-4.33-7.5-4.33-4.999 0-5 8.66 0 8.66 1.83 0 4.33-1.161 7.5-4.33-7.5 7.5-3.75 11.25 0 11.25S21.5 22.5 14 15c3.17 3.17 5.67 4.33 7.5 4.33 4.999 0 5-8.661 0-8.66-1.83 0-4.33 1.161-7.5 4.33 7.5-7.5 3.75-11.25 0-11.25z"/>
    </symbol>

    <symbol id="search" viewBox="0 0 250 250">
        <title>search symbol</title>
        <style type="text/css">  
            .st0{fill:none;stroke:#000000;stroke-width:10;stroke-miterlimit:10;}
            .st1{fill:none;stroke:#000000;stroke-width:6;stroke-miterlimit:10;}
        </style>
        <path d="M45 14.5c17.4 0 31.5 14.1 31.5 31.5S62.4 77.5 45 77.5 13.5 63.4 13.5 46 27.6 14.5 45 14.5M45 6C22.9 6 5 23.9 5 46c0 22.1 17.9 40 40 40 22.1 0 40-17.9 40-40C85 23.9 67.1 6 45 6L45 6z"/><line class="st0" x1="72" y1="73" x2="107.4" y2="107.4"/><path class="st1" d="M36.6 27.9c5.2-3.4 12.2-2.9 16.5 1.3"/>
    </symbol>
</svg>