<?xml version="1.0" encoding="iso-8859-1"?>

<svg version="1.1" id="sunny" xmlns="http://www.w3.org/2000/svg" xmlns:xlink="http://www.w3.org/1999/xlink"  viewBox="0 0 120 120" style="enable-background:new 0 0 120 120;" x="0px" y="0px" xml:space="preserve">
	<style type="text/css">  

	.st0{stroke:#000000;stroke-width:5.6373;stroke-miterlimit:10;}
</style>

<path class="st0" d="M62.6 2.5c0 4.1-5.2 4.1-5.2 8.3 0 4.1 5.2 4.1 5.2 8.3s-5.2 4.1-5.2 8.3"/><path class="st0" d="M21.2 17.5c2.9 2.9-0.7 6.6 2.2 9.5 2.9 2.9 6.6-0.7 9.5 2.2s-0.7 6.6 2.2 9.5"/><path class="st0" d="M2.5 57.4c4.1 0 4.1 5.2 8.3 5.2 4.1 0 4.1-5.2 8.3-5.2s4.1 5.2 8.3 5.2"/><path class="st0" d="M17.5 98.8c2.9-2.9 6.6 0.7 9.5-2.2 2.9-2.9-0.7-6.6 2.2-9.5 2.9-2.9 6.6 0.7 9.5-2.2"/><path class="st0" d="M57.4 117.5c0-4.1 5.2-4.1 5.2-8.3 0-4.1-5.2-4.1-5.2-8.3s5.2-4.1 5.2-8.3"/><path class="st0" d="M98.8 102.5c-2.9-2.9 0.7-6.6-2.2-9.5 -2.9-2.9-6.6 0.7-9.5-2.2 -2.9-2.9 0.7-6.6-2.2-9.5"/><path class="st0" d="M117.5 62.6c-4.1 0-4.1-5.2-8.3-5.2 -4.1 0-4.1 5.2-8.3 5.2s-4.1-5.2-8.3-5.2"/><path class="st0" d="M102.5 21.2c-2.9 2.9-6.6-0.7-9.5 2.2 -2.9 2.9 0.7 6.6-2.2 9.5 -2.9 2.9-6.6-0.7-9.5 2.2"/><circle class="st0" cx="60" cy="60" r="23"/></svg>