<svg id = "swigglysun" xmlns="http://www.w3.org/2000/svg"  viewBox="0 0 120 120" style="enable-background:new 0 0 120 120;" x="0px" y="0px" xml:space="preserve">
	<style type="text/css">  
		.st0{fill:none;stroke:#000000;stroke-width:5.6373;stroke-miterlimit:10;}
	</style>
<path class="st0" d="M62.6 2.5c0 4.1-5.2 4.1-5.2 8.3 0 4.1 5.2 4.1 5.2 8.3s-5.2 4.1-5.2 8.3"/><path class="st0" d="M21.2 17.5c2.9 2.9-0.7 6.6 2.2 9.5 2.9 2.9 6.6-0.7 9.5 2.2s-0.7 6.6 2.2 9.5"/><path class="st0" d="M2.5 57.4c4.1 0 4.1 5.2 8.3 5.2 4.1 0 4.1-5.2 8.3-5.2s4.1 5.2 8.3 5.2"/><path class="st0" d="M17.5 98.8c2.9-2.9 6.6 0.7 9.5-2.2 2.9-2.9-0.7-6.6 2.2-9.5 2.9-2.9 6.6 0.7 9.5-2.2"/><path class="st0" d="M57.4 117.5c0-4.1 5.2-4.1 5.2-8.3 0-4.1-5.2-4.1-5.2-8.3s5.2-4.1 5.2-8.3"/><path class="st0" d="M98.8 102.5c-2.9-2.9 0.7-6.6-2.2-9.5 -2.9-2.9-6.6 0.7-9.5-2.2 -2.9-2.9 0.7-6.6-2.2-9.5"/><path class="st0" d="M117.5 62.6c-4.1 0-4.1-5.2-8.3-5.2 -4.1 0-4.1 5.2-8.3 5.2s-4.1-5.2-8.3-5.2"/><path class="st0" d="M102.5 21.2c-2.9 2.9-6.6-0.7-9.5 2.2 -2.9 2.9 0.7 6.6-2.2 9.5 -2.9 2.9-6.6-0.7-9.5 2.2"/><path class="st0" d="M76.9 43.1c-2.4-2-6-4.6-8.6-5.6 -2.6-1-5.5-1.4-8.9-1.4 -0.9 0-1.9 0-2.8 0.1 -2.5 0.2-5 0.8-7.4 1.7 -3 1.1-6.9 3.9-8.8 5.9 -1.9 1.9-3.5 4.7-4.7 7.7 -1.5 3.6-2.2 7.7-1.9 11.3 0.5 4.6 2.4 8.9 5.4 12.1 3.5 3.7 11.7 8.1 17.3 7.6 4.2-0.4 11-1.6 14.3-4.9s5.5-9.7 5.1-13.8c-0.2-1.8-0.2-6.2-1.8-9.2 -1.3-2.4-4-4.7-5.5-5.9 -1.6-1.2-3.7-2-5.8-2.4 -2.2-0.4-4.4-0.5-6.2-0.3 -1.8 0.2-4.5 0.4-6.9 2.2 -1.7 1.3-3.3 2.8-4.2 4.1 -0.9 1.3-2.5 4.1-2.7 5.8 -0.2 1.7-0.1 3.3 0 4.5 0.2 2.2 1.8 5.7 3.8 7.5 0.6 0.5 1.3 1 2.2 1.4 2.5 1.3 5.9 2 7.7 1.8 1.3-0.1 3.9 0.3 5.2-0.8 0.6-0.5 3.5-3.3 4-3.9 0.8-1 0.7-2 1.5-3.1 0.8-1.1 0.2-2.1 0.1-3 -0.5-4.9-1.7-5.8-4.3-7.5 -1.8-1.3-6.2-1-7.6-0.8 -1.3 0.1-3.5 2.4-4.3 3.9 -0.8 1.5 0 3.2 0.1 4.5 0.2 2 3.2 3.5 5.3 3.3 1.7-0.2 3-1.7 2.8-3.3 -0.1-1.4-1.4-2.4-2.8-2.2 -1.2 0.1-2 1.1-1.9 2.3 0.1 0.9 0.9 1.6 1.9 1.5 0.8-0.1 1.4-0.8 1.3-1.5 -0.1-0.6-0.6-1.1-1.3-1"/><path class="st0" d="M75.8 42c3.3 2.3 6.7 7.4 8.1 11.2 1.4 3.8 2 7.4 2 9.1 0 2.4-0.5 5.3-1.5 8.2 -1.2 3.6-1.9 4.9-4.2 7.4"/></svg>